<mxfile host="app.diagrams.net" modified="2022-02-21T13:24:42.308Z" agent="5.0 (Windows)" etag="Sq3YFqcnCYnP4dIuw4J6" version="16.6.1" type="github">
  <diagram id="WlLERivJvHOrQGwCGo-z" name="Page-1">
    <mxGraphModel dx="1422" dy="772" grid="1" gridSize="10" guides="1" tooltips="1" connect="1" arrows="1" fold="1" page="1" pageScale="1" pageWidth="827" pageHeight="1169" math="0" shadow="0">
      <root>
        <mxCell id="0" />
        <mxCell id="1" parent="0" />
        <mxCell id="svfuUnnYPEn1SZQeDjv_-2" value="" style="group" parent="1" vertex="1" connectable="0">
          <mxGeometry x="230" y="770" width="250" height="120" as="geometry" />
        </mxCell>
        <mxCell id="-C2Bd3RJ06ezDWMRbkp3-7" value="" style="shape=parallelogram;perimeter=parallelogramPerimeter;whiteSpace=wrap;html=1;fixedSize=1;dashed=1;" parent="svfuUnnYPEn1SZQeDjv_-2" vertex="1">
          <mxGeometry x="1.984126984126984" y="11.200000000000001" width="248.01587301587298" height="108.8" as="geometry" />
        </mxCell>
        <mxCell id="-C2Bd3RJ06ezDWMRbkp3-36" value="A" style="ellipse;whiteSpace=wrap;html=1;" parent="svfuUnnYPEn1SZQeDjv_-2" vertex="1">
          <mxGeometry width="59.52380952380952" height="28.444444444444446" as="geometry" />
        </mxCell>
        <mxCell id="svfuUnnYPEn1SZQeDjv_-17" value="th_startRobot" style="edgeLabel;html=1;align=center;verticalAlign=middle;resizable=0;points=[];" parent="svfuUnnYPEn1SZQeDjv_-2" vertex="1" connectable="0">
          <mxGeometry x="83.33333333333356" y="5.111111111111112" as="geometry">
            <mxPoint x="8" y="-4" as="offset" />
          </mxGeometry>
        </mxCell>
        <mxCell id="svfuUnnYPEn1SZQeDjv_-34" value="startRobot" style="edgeLabel;html=1;align=center;verticalAlign=middle;resizable=0;points=[];" parent="svfuUnnYPEn1SZQeDjv_-2" vertex="1" connectable="0">
          <mxGeometry x="39.999992020860645" y="57.037686691731324" as="geometry" />
        </mxCell>
        <mxCell id="svfuUnnYPEn1SZQeDjv_-35" value="withWD" style="edgeLabel;html=1;align=center;verticalAlign=middle;resizable=0;points=[];" parent="svfuUnnYPEn1SZQeDjv_-2" vertex="1" connectable="0">
          <mxGeometry x="27.999992020860645" y="86.99768669173136" as="geometry">
            <mxPoint x="2" y="1" as="offset" />
          </mxGeometry>
        </mxCell>
        <mxCell id="svfuUnnYPEn1SZQeDjv_-50" value="robotStarted" style="edgeLabel;html=1;align=center;verticalAlign=middle;resizable=0;points=[];" parent="svfuUnnYPEn1SZQeDjv_-2" vertex="1" connectable="0">
          <mxGeometry x="199.99968937716744" y="109.9955414728505" as="geometry">
            <mxPoint x="-5" y="-6" as="offset" />
          </mxGeometry>
        </mxCell>
        <mxCell id="-C2Bd3RJ06ezDWMRbkp3-57" style="rounded=0;orthogonalLoop=1;jettySize=auto;html=1;dashed=1;strokeColor=default;entryX=0;entryY=0.5;entryDx=0;entryDy=0;" parent="1" target="svfuUnnYPEn1SZQeDjv_-10" edge="1">
          <mxGeometry relative="1" as="geometry">
            <mxPoint x="120" y="628" as="sourcePoint" />
            <mxPoint x="550" y="350" as="targetPoint" />
          </mxGeometry>
        </mxCell>
        <mxCell id="svfuUnnYPEn1SZQeDjv_-24" value="openComRobot" style="edgeLabel;html=1;align=center;verticalAlign=middle;resizable=0;points=[];" parent="-C2Bd3RJ06ezDWMRbkp3-57" vertex="1" connectable="0">
          <mxGeometry x="0.4665" relative="1" as="geometry">
            <mxPoint x="-95" y="-13" as="offset" />
          </mxGeometry>
        </mxCell>
        <mxCell id="-C2Bd3RJ06ezDWMRbkp3-63" value="" style="rounded=1;whiteSpace=wrap;html=1;dashed=1;strokeWidth=2;fillColor=none;" parent="1" vertex="1">
          <mxGeometry x="200" y="560" width="680" height="480" as="geometry" />
        </mxCell>
        <mxCell id="svfuUnnYPEn1SZQeDjv_-43" style="edgeStyle=orthogonalEdgeStyle;rounded=0;orthogonalLoop=1;jettySize=auto;html=1;exitX=0.5;exitY=0;exitDx=0;exitDy=0;entryX=0.5;entryY=1;entryDx=0;entryDy=0;endArrow=classic;endFill=1;startArrow=classic;startFill=1;" parent="1" source="-C2Bd3RJ06ezDWMRbkp3-61" target="svfuUnnYPEn1SZQeDjv_-4" edge="1">
          <mxGeometry relative="1" as="geometry">
            <Array as="points">
              <mxPoint x="545" y="770" />
              <mxPoint x="738" y="770" />
            </Array>
          </mxGeometry>
        </mxCell>
        <mxCell id="svfuUnnYPEn1SZQeDjv_-45" style="edgeStyle=orthogonalEdgeStyle;rounded=0;orthogonalLoop=1;jettySize=auto;html=1;exitX=1;exitY=0;exitDx=0;exitDy=0;entryX=0;entryY=0.5;entryDx=0;entryDy=0;endArrow=classic;endFill=1;" parent="1" source="-C2Bd3RJ06ezDWMRbkp3-61" target="svfuUnnYPEn1SZQeDjv_-7" edge="1">
          <mxGeometry relative="1" as="geometry">
            <Array as="points">
              <mxPoint x="560" y="860" />
              <mxPoint x="560" y="831" />
            </Array>
          </mxGeometry>
        </mxCell>
        <mxCell id="svfuUnnYPEn1SZQeDjv_-46" style="edgeStyle=orthogonalEdgeStyle;rounded=0;orthogonalLoop=1;jettySize=auto;html=1;exitX=0.5;exitY=1;exitDx=0;exitDy=0;entryX=0;entryY=0.25;entryDx=0;entryDy=0;endArrow=classic;endFill=1;startArrow=none;startFill=0;" parent="1" source="-C2Bd3RJ06ezDWMRbkp3-61" target="svfuUnnYPEn1SZQeDjv_-13" edge="1">
          <mxGeometry relative="1" as="geometry">
            <Array as="points">
              <mxPoint x="545" y="968" />
            </Array>
          </mxGeometry>
        </mxCell>
        <mxCell id="-C2Bd3RJ06ezDWMRbkp3-61" value="robotStarted" style="rounded=0;whiteSpace=wrap;html=1;" parent="1" vertex="1">
          <mxGeometry x="500" y="860" width="90" height="30" as="geometry" />
        </mxCell>
        <mxCell id="svfuUnnYPEn1SZQeDjv_-3" value="" style="group" parent="1" vertex="1" connectable="0">
          <mxGeometry x="647" y="680" width="180" height="60" as="geometry" />
        </mxCell>
        <mxCell id="svfuUnnYPEn1SZQeDjv_-4" value="" style="shape=parallelogram;perimeter=parallelogramPerimeter;whiteSpace=wrap;html=1;fixedSize=1;dashed=1;" parent="svfuUnnYPEn1SZQeDjv_-3" vertex="1">
          <mxGeometry x="1.4285714285714284" y="5.599999999999999" width="178.57142857142856" height="54.4" as="geometry" />
        </mxCell>
        <mxCell id="svfuUnnYPEn1SZQeDjv_-5" value="1s" style="ellipse;whiteSpace=wrap;html=1;" parent="svfuUnnYPEn1SZQeDjv_-3" vertex="1">
          <mxGeometry width="42.85714285714285" height="14.222222222222221" as="geometry" />
        </mxCell>
        <mxCell id="svfuUnnYPEn1SZQeDjv_-18" value="th_Watchdog" style="edgeLabel;html=1;align=center;verticalAlign=middle;resizable=0;points=[];" parent="svfuUnnYPEn1SZQeDjv_-3" vertex="1" connectable="0">
          <mxGeometry x="74.00000000000023" as="geometry" />
        </mxCell>
        <mxCell id="svfuUnnYPEn1SZQeDjv_-47" value="robotStarted" style="edgeLabel;html=1;align=center;verticalAlign=middle;resizable=0;points=[];" parent="svfuUnnYPEn1SZQeDjv_-3" vertex="1" connectable="0">
          <mxGeometry x="92.70968937716748" y="58.995541472850505" as="geometry">
            <mxPoint x="-5" y="-6" as="offset" />
          </mxGeometry>
        </mxCell>
        <mxCell id="svfuUnnYPEn1SZQeDjv_-64" value="Watchdog" style="edgeLabel;html=1;align=center;verticalAlign=middle;resizable=0;points=[];" parent="svfuUnnYPEn1SZQeDjv_-3" vertex="1" connectable="0">
          <mxGeometry x="38.99759454328455" y="31.004886320370588" as="geometry" />
        </mxCell>
        <mxCell id="svfuUnnYPEn1SZQeDjv_-21" value="" style="group" parent="1" vertex="1" connectable="0">
          <mxGeometry x="635" y="793.14" width="190" height="70" as="geometry" />
        </mxCell>
        <mxCell id="svfuUnnYPEn1SZQeDjv_-6" value="" style="group" parent="svfuUnnYPEn1SZQeDjv_-21" vertex="1" connectable="0">
          <mxGeometry width="190" height="70" as="geometry" />
        </mxCell>
        <mxCell id="svfuUnnYPEn1SZQeDjv_-7" value="" style="shape=parallelogram;perimeter=parallelogramPerimeter;whiteSpace=wrap;html=1;fixedSize=1;dashed=1;" parent="svfuUnnYPEn1SZQeDjv_-6" vertex="1">
          <mxGeometry x="1.507936507936508" y="6.533333333333333" width="188.4920634920635" height="63.46666666666667" as="geometry" />
        </mxCell>
        <mxCell id="svfuUnnYPEn1SZQeDjv_-8" value="500ms" style="ellipse;whiteSpace=wrap;html=1;" parent="svfuUnnYPEn1SZQeDjv_-6" vertex="1">
          <mxGeometry width="45.23809523809524" height="16.59259259259259" as="geometry" />
        </mxCell>
        <mxCell id="svfuUnnYPEn1SZQeDjv_-48" value="robotStarted" style="edgeLabel;html=1;align=center;verticalAlign=middle;resizable=0;points=[];" parent="svfuUnnYPEn1SZQeDjv_-6" vertex="1" connectable="0">
          <mxGeometry x="45.23968937716745" y="46.85554147285052" as="geometry">
            <mxPoint x="-5" y="-6" as="offset" />
          </mxGeometry>
        </mxCell>
        <mxCell id="svfuUnnYPEn1SZQeDjv_-20" value="th_batteryLevel" style="edgeLabel;html=1;align=center;verticalAlign=middle;resizable=0;points=[];" parent="svfuUnnYPEn1SZQeDjv_-21" vertex="1" connectable="0">
          <mxGeometry x="82.00000000000023" as="geometry" />
        </mxCell>
        <mxCell id="svfuUnnYPEn1SZQeDjv_-23" value="" style="group" parent="1" vertex="1" connectable="0">
          <mxGeometry x="234" y="590" width="242" height="70" as="geometry" />
        </mxCell>
        <mxCell id="svfuUnnYPEn1SZQeDjv_-9" value="" style="group" parent="svfuUnnYPEn1SZQeDjv_-23" vertex="1" connectable="0">
          <mxGeometry width="242" height="70" as="geometry" />
        </mxCell>
        <mxCell id="svfuUnnYPEn1SZQeDjv_-10" value="" style="shape=parallelogram;perimeter=parallelogramPerimeter;whiteSpace=wrap;html=1;fixedSize=1;dashed=1;" parent="svfuUnnYPEn1SZQeDjv_-9" vertex="1">
          <mxGeometry x="-1.0793650793650793" y="6.533333333333334" width="240.0793650793651" height="63.46666666666667" as="geometry" />
        </mxCell>
        <mxCell id="svfuUnnYPEn1SZQeDjv_-11" value="A" style="ellipse;whiteSpace=wrap;html=1;" parent="svfuUnnYPEn1SZQeDjv_-9" vertex="1">
          <mxGeometry width="57.61904761904761" height="16.59259259259259" as="geometry" />
        </mxCell>
        <mxCell id="svfuUnnYPEn1SZQeDjv_-25" value="openComRobot" style="edgeLabel;html=1;align=center;verticalAlign=middle;resizable=0;points=[];" parent="svfuUnnYPEn1SZQeDjv_-9" vertex="1" connectable="0">
          <mxGeometry x="47.99987348953573" y="35.003906183719494" as="geometry" />
        </mxCell>
        <mxCell id="svfuUnnYPEn1SZQeDjv_-16" value="th_openComRobot" style="edgeLabel;html=1;align=center;verticalAlign=middle;resizable=0;points=[];" parent="svfuUnnYPEn1SZQeDjv_-23" vertex="1" connectable="0">
          <mxGeometry x="100.00000000000023" as="geometry">
            <mxPoint x="3" y="-3" as="offset" />
          </mxGeometry>
        </mxCell>
        <mxCell id="svfuUnnYPEn1SZQeDjv_-22" value="" style="group" parent="1" vertex="1" connectable="0">
          <mxGeometry x="605" y="940" width="210" height="80" as="geometry" />
        </mxCell>
        <mxCell id="svfuUnnYPEn1SZQeDjv_-12" value="" style="group" parent="svfuUnnYPEn1SZQeDjv_-22" vertex="1" connectable="0">
          <mxGeometry width="210" height="80" as="geometry" />
        </mxCell>
        <mxCell id="svfuUnnYPEn1SZQeDjv_-13" value="" style="shape=parallelogram;perimeter=parallelogramPerimeter;whiteSpace=wrap;html=1;fixedSize=1;dashed=1;" parent="svfuUnnYPEn1SZQeDjv_-12" vertex="1">
          <mxGeometry x="1.6666666666666667" y="7.466666666666668" width="208.33333333333334" height="72.53333333333335" as="geometry" />
        </mxCell>
        <mxCell id="svfuUnnYPEn1SZQeDjv_-14" value="A" style="ellipse;whiteSpace=wrap;html=1;" parent="svfuUnnYPEn1SZQeDjv_-12" vertex="1">
          <mxGeometry width="50" height="18.962962962962965" as="geometry" />
        </mxCell>
        <mxCell id="svfuUnnYPEn1SZQeDjv_-49" value="robotStarted" style="edgeLabel;html=1;align=center;verticalAlign=middle;resizable=0;points=[];" parent="svfuUnnYPEn1SZQeDjv_-12" vertex="1" connectable="0">
          <mxGeometry x="52.99968937716744" y="33.995541472850505" as="geometry">
            <mxPoint x="-5" y="-6" as="offset" />
          </mxGeometry>
        </mxCell>
        <mxCell id="svfuUnnYPEn1SZQeDjv_-19" value="th_move" style="edgeLabel;html=1;align=center;verticalAlign=middle;resizable=0;points=[];" parent="svfuUnnYPEn1SZQeDjv_-22" vertex="1" connectable="0">
          <mxGeometry x="70.00000000000023" as="geometry" />
        </mxCell>
        <mxCell id="svfuUnnYPEn1SZQeDjv_-26" value="messageToMon" style="edgeLabel;html=1;align=center;verticalAlign=middle;resizable=0;points=[];" parent="1" vertex="1" connectable="0">
          <mxGeometry x="425.99968937716744" y="631.1355414728505" as="geometry">
            <mxPoint x="-5" y="-6" as="offset" />
          </mxGeometry>
        </mxCell>
        <mxCell id="svfuUnnYPEn1SZQeDjv_-28" style="rounded=0;orthogonalLoop=1;jettySize=auto;html=1;dashed=1;strokeColor=default;entryX=0.036;entryY=0.449;entryDx=0;entryDy=0;entryPerimeter=0;" parent="1" target="-C2Bd3RJ06ezDWMRbkp3-7" edge="1">
          <mxGeometry relative="1" as="geometry">
            <mxPoint x="120" y="830" as="sourcePoint" />
            <mxPoint x="242.92063492063494" y="829.7666666666667" as="targetPoint" />
          </mxGeometry>
        </mxCell>
        <mxCell id="svfuUnnYPEn1SZQeDjv_-29" value="startRobot" style="edgeLabel;html=1;align=center;verticalAlign=middle;resizable=0;points=[];" parent="svfuUnnYPEn1SZQeDjv_-28" vertex="1" connectable="0">
          <mxGeometry x="0.4665" relative="1" as="geometry">
            <mxPoint x="-95" y="-13" as="offset" />
          </mxGeometry>
        </mxCell>
        <mxCell id="svfuUnnYPEn1SZQeDjv_-30" style="rounded=0;orthogonalLoop=1;jettySize=auto;html=1;strokeColor=default;entryX=0.032;entryY=0.727;entryDx=0;entryDy=0;entryPerimeter=0;startArrow=none;exitX=1;exitY=0.5;exitDx=0;exitDy=0;" parent="1" source="svfuUnnYPEn1SZQeDjv_-15" target="-C2Bd3RJ06ezDWMRbkp3-7" edge="1">
          <mxGeometry relative="1" as="geometry">
            <mxPoint x="120" y="860" as="sourcePoint" />
            <mxPoint x="234.00063492063492" y="860.2666666666667" as="targetPoint" />
          </mxGeometry>
        </mxCell>
        <mxCell id="svfuUnnYPEn1SZQeDjv_-15" value="withWD" style="rounded=0;whiteSpace=wrap;html=1;" parent="1" vertex="1">
          <mxGeometry x="140" y="845" width="50" height="30" as="geometry" />
        </mxCell>
        <mxCell id="svfuUnnYPEn1SZQeDjv_-33" value="" style="rounded=0;orthogonalLoop=1;jettySize=auto;html=1;strokeColor=default;entryX=0;entryY=0.5;entryDx=0;entryDy=0;endArrow=none;" parent="1" target="svfuUnnYPEn1SZQeDjv_-15" edge="1">
          <mxGeometry relative="1" as="geometry">
            <mxPoint x="120" y="860" as="sourcePoint" />
            <mxPoint x="239.92063492063494" y="860.2976000000001" as="targetPoint" />
          </mxGeometry>
        </mxCell>
        <mxCell id="svfuUnnYPEn1SZQeDjv_-37" style="edgeStyle=orthogonalEdgeStyle;rounded=0;orthogonalLoop=1;jettySize=auto;html=1;exitX=1;exitY=0.5;exitDx=0;exitDy=0;" parent="1" source="svfuUnnYPEn1SZQeDjv_-10" edge="1">
          <mxGeometry relative="1" as="geometry">
            <mxPoint x="900" y="628" as="targetPoint" />
          </mxGeometry>
        </mxCell>
        <mxCell id="svfuUnnYPEn1SZQeDjv_-40" style="edgeStyle=orthogonalEdgeStyle;rounded=0;orthogonalLoop=1;jettySize=auto;html=1;exitX=0.75;exitY=0;exitDx=0;exitDy=0;endArrow=none;endFill=0;" parent="1" source="-C2Bd3RJ06ezDWMRbkp3-7" edge="1">
          <mxGeometry relative="1" as="geometry">
            <mxPoint x="500" y="630" as="targetPoint" />
            <Array as="points">
              <mxPoint x="418" y="706" />
              <mxPoint x="500" y="706" />
              <mxPoint x="500" y="630" />
            </Array>
          </mxGeometry>
        </mxCell>
        <mxCell id="svfuUnnYPEn1SZQeDjv_-41" value="messageToMon" style="edgeLabel;html=1;align=center;verticalAlign=middle;resizable=0;points=[];" parent="1" vertex="1" connectable="0">
          <mxGeometry x="418.99968937716744" y="793.1355414728505" as="geometry">
            <mxPoint x="-5" y="-6" as="offset" />
          </mxGeometry>
        </mxCell>
        <mxCell id="svfuUnnYPEn1SZQeDjv_-42" style="edgeStyle=orthogonalEdgeStyle;rounded=0;orthogonalLoop=1;jettySize=auto;html=1;exitX=1;exitY=0.25;exitDx=0;exitDy=0;entryX=0;entryY=0.5;entryDx=0;entryDy=0;endArrow=classic;endFill=1;dashed=1;" parent="1" source="-C2Bd3RJ06ezDWMRbkp3-7" target="svfuUnnYPEn1SZQeDjv_-4" edge="1">
          <mxGeometry relative="1" as="geometry">
            <Array as="points">
              <mxPoint x="530" y="810" />
              <mxPoint x="530" y="713" />
            </Array>
          </mxGeometry>
        </mxCell>
        <mxCell id="svfuUnnYPEn1SZQeDjv_-63" value="Watchdog" style="edgeLabel;html=1;align=center;verticalAlign=middle;resizable=0;points=[];" parent="svfuUnnYPEn1SZQeDjv_-42" vertex="1" connectable="0">
          <mxGeometry x="-0.7417" y="3" relative="1" as="geometry">
            <mxPoint x="-65" y="2" as="offset" />
          </mxGeometry>
        </mxCell>
        <mxCell id="svfuUnnYPEn1SZQeDjv_-44" style="edgeStyle=orthogonalEdgeStyle;rounded=0;orthogonalLoop=1;jettySize=auto;html=1;entryX=0;entryY=0.5;entryDx=0;entryDy=0;endArrow=classic;endFill=1;exitX=0.931;exitY=0.862;exitDx=0;exitDy=0;exitPerimeter=0;" parent="1" source="-C2Bd3RJ06ezDWMRbkp3-7" target="-C2Bd3RJ06ezDWMRbkp3-61" edge="1">
          <mxGeometry relative="1" as="geometry">
            <mxPoint x="466" y="875" as="sourcePoint" />
            <Array as="points" />
          </mxGeometry>
        </mxCell>
        <mxCell id="svfuUnnYPEn1SZQeDjv_-51" style="edgeStyle=orthogonalEdgeStyle;rounded=0;orthogonalLoop=1;jettySize=auto;html=1;exitX=1;exitY=0.5;exitDx=0;exitDy=0;startArrow=none;startFill=0;endArrow=none;endFill=0;" parent="1" source="svfuUnnYPEn1SZQeDjv_-7" edge="1">
          <mxGeometry relative="1" as="geometry">
            <mxPoint x="850" y="630" as="targetPoint" />
          </mxGeometry>
        </mxCell>
        <mxCell id="svfuUnnYPEn1SZQeDjv_-52" style="rounded=0;orthogonalLoop=1;jettySize=auto;html=1;strokeColor=default;strokeWidth=1;startArrow=classic;startFill=1;endArrow=none;endFill=0;exitX=1;exitY=0.5;exitDx=0;exitDy=0;" parent="1" source="svfuUnnYPEn1SZQeDjv_-13" edge="1">
          <mxGeometry relative="1" as="geometry">
            <mxPoint x="910" y="984" as="targetPoint" />
            <mxPoint x="810" y="970" as="sourcePoint" />
          </mxGeometry>
        </mxCell>
        <mxCell id="svfuUnnYPEn1SZQeDjv_-53" value="Answer" style="edgeLabel;html=1;align=center;verticalAlign=middle;resizable=0;points=[];" parent="svfuUnnYPEn1SZQeDjv_-52" vertex="1" connectable="0">
          <mxGeometry x="-0.3302" y="-1" relative="1" as="geometry">
            <mxPoint x="80" y="-15" as="offset" />
          </mxGeometry>
        </mxCell>
        <mxCell id="svfuUnnYPEn1SZQeDjv_-54" value="Answer" style="edgeLabel;html=1;align=center;verticalAlign=middle;resizable=0;points=[];" parent="svfuUnnYPEn1SZQeDjv_-52" vertex="1" connectable="0">
          <mxGeometry x="-0.673" y="-2" relative="1" as="geometry">
            <mxPoint x="-46" y="-2" as="offset" />
          </mxGeometry>
        </mxCell>
        <mxCell id="svfuUnnYPEn1SZQeDjv_-55" style="rounded=0;orthogonalLoop=1;jettySize=auto;html=1;strokeColor=default;strokeWidth=1;startArrow=none;startFill=0;endArrow=classic;endFill=1;exitX=1;exitY=0.5;exitDx=0;exitDy=0;" parent="1" edge="1">
          <mxGeometry relative="1" as="geometry">
            <mxPoint x="910" y="1010" as="targetPoint" />
            <mxPoint x="800" y="1010.0033333333333" as="sourcePoint" />
          </mxGeometry>
        </mxCell>
        <mxCell id="svfuUnnYPEn1SZQeDjv_-56" value="Order" style="edgeLabel;html=1;align=center;verticalAlign=middle;resizable=0;points=[];" parent="svfuUnnYPEn1SZQeDjv_-55" vertex="1" connectable="0">
          <mxGeometry x="-0.3302" y="-1" relative="1" as="geometry">
            <mxPoint x="73" y="-11" as="offset" />
          </mxGeometry>
        </mxCell>
        <mxCell id="svfuUnnYPEn1SZQeDjv_-57" value="Order" style="edgeLabel;html=1;align=center;verticalAlign=middle;resizable=0;points=[];" parent="svfuUnnYPEn1SZQeDjv_-55" vertex="1" connectable="0">
          <mxGeometry x="-0.673" y="-2" relative="1" as="geometry">
            <mxPoint x="-38" y="-4" as="offset" />
          </mxGeometry>
        </mxCell>
        <mxCell id="svfuUnnYPEn1SZQeDjv_-58" style="rounded=0;orthogonalLoop=1;jettySize=auto;html=1;strokeColor=default;strokeWidth=1;startArrow=none;startFill=0;endArrow=classic;endFill=1;entryX=0;entryY=0.75;entryDx=0;entryDy=0;" parent="1" target="svfuUnnYPEn1SZQeDjv_-13" edge="1">
          <mxGeometry relative="1" as="geometry">
            <mxPoint x="230" y="990" as="targetPoint" />
            <mxPoint x="120" y="1001" as="sourcePoint" />
          </mxGeometry>
        </mxCell>
        <mxCell id="svfuUnnYPEn1SZQeDjv_-59" value="move" style="edgeLabel;html=1;align=center;verticalAlign=middle;resizable=0;points=[];" parent="svfuUnnYPEn1SZQeDjv_-58" vertex="1" connectable="0">
          <mxGeometry x="-0.3302" y="-1" relative="1" as="geometry">
            <mxPoint x="345" y="-3" as="offset" />
          </mxGeometry>
        </mxCell>
        <mxCell id="svfuUnnYPEn1SZQeDjv_-60" value="move" style="edgeLabel;html=1;align=center;verticalAlign=middle;resizable=0;points=[];" parent="svfuUnnYPEn1SZQeDjv_-58" vertex="1" connectable="0">
          <mxGeometry x="-0.673" y="-2" relative="1" as="geometry">
            <mxPoint x="-80" y="-13" as="offset" />
          </mxGeometry>
        </mxCell>
        <mxCell id="svfuUnnYPEn1SZQeDjv_-61" value="messageToMon" style="edgeLabel;html=1;align=center;verticalAlign=middle;resizable=0;points=[];" parent="1" vertex="1" connectable="0">
          <mxGeometry x="779.9996893771674" y="834.4055414728505" as="geometry">
            <mxPoint x="-5" y="-6" as="offset" />
          </mxGeometry>
        </mxCell>
        <mxCell id="svfuUnnYPEn1SZQeDjv_-65" value="messageToMon" style="edgeLabel;html=1;align=center;verticalAlign=middle;resizable=0;points=[];" parent="1" vertex="1" connectable="0">
          <mxGeometry x="929.9996893771674" y="619.9955414728505" as="geometry">
            <mxPoint x="-5" y="-6" as="offset" />
          </mxGeometry>
        </mxCell>
        <mxCell id="svfuUnnYPEn1SZQeDjv_-66" value="th_group_gestion_robot" style="text;html=1;align=center;verticalAlign=middle;resizable=0;points=[];autosize=1;strokeColor=none;fillColor=none;" parent="1" vertex="1">
          <mxGeometry x="280" y="540" width="150" height="20" as="geometry" />
        </mxCell>
      </root>
    </mxGraphModel>
  </diagram>
</mxfile>
